<svg height="1141" width="4227" xmlns="http://www.w3.org/2000/svg" version="1.1">
<path transform="translate(464,419)" fill="#4338B3" d="M0 0 C366.66902174 0 366.66902174 0 415.5625 47.25 C443.45101406 75.89118703 455.41965738 114.36768215 455.31567383 153.75048828 C455.31252051 156.23384883 455.3360593 158.71600464 455.36132812 161.19921875 C455.51563194 200.21353044 441.62075085 235.95132038 414.375 264 C405.66567462 272.72489291 395.4763662 279.58314017 385 286 C386.11375 286.47308594 387.2275 286.94617188 388.375 287.43359375 C404.19065253 294.24439567 418.81495748 301.82905698 432 313 C432.81380127 313.68618408 432.81380127 313.68618408 433.64404297 314.38623047 C459.32080612 336.32709613 475.58117948 367.80018417 481 401 C481.30550781 402.80597656 481.30550781 402.80597656 481.6171875 404.6484375 C488.36919795 449.21282436 479.25483258 496.54401946 452.625 533.125 C445.03295722 542.9920556 436.89577208 551.43840015 427 559 C426.14921875 559.66644531 425.2984375 560.33289063 424.421875 561.01953125 C382.20682142 593.05999856 329.30455522 595.19080035 278.50527969 595.11607273 C274.70066302 595.11163613 270.89604732 595.11317186 267.09142876 595.11389065 C259.74040802 595.11441757 252.38939972 595.10984698 245.03838217 595.10338932 C236.51704203 595.09613073 227.99570914 595.09539139 219.47436523 595.09460449 C197.02457488 595.0893746 174.57478725 595.07541334 152.125 595.0625 C101.92375 595.041875 51.7225 595.02125 0 595 C0 398.65 0 202.3 0 0 Z M147 137 C147 169.01 147 201.02 147 234 C168.22261605 234.09026199 168.22261605 234.09026199 189.44525909 234.1507616 C197.04103794 234.16732395 204.63671692 234.18828164 212.23242188 234.22631836 C218.8979128 234.25968066 225.56327332 234.27689599 232.22885132 234.28463173 C234.76111549 234.29013863 237.29337433 234.30089136 239.82559204 234.31719017 C271.31908005 234.54868503 271.31908005 234.54868503 298.0625 219.375 C307.29339502 209.87935655 309.3544786 198.45739097 309.3125 185.6875 C309.32861328 184.71876953 309.34472656 183.75003906 309.36132812 182.75195312 C309.36893299 171.35226663 306.48511355 159.1972407 298.64453125 150.50390625 C285.01020677 138.03546225 267.00257728 136.82503331 249.39990234 136.88647461 C248.28653503 136.88632858 247.17316772 136.88618256 246.02606201 136.8860321 C242.37933339 136.88672371 238.7326571 136.89448062 235.0859375 136.90234375 C232.54432198 136.9042106 230.0027061 136.90563325 227.46109009 136.90663147 C221.47611431 136.91004765 215.49116069 136.91791334 209.50619376 136.92798096 C200.81678175 136.94227711 192.12736333 136.94746742 183.4379425 136.95378876 C171.29194637 136.96346073 159.14599855 136.98263203 147 137 Z M147 352 C147 386.98 147 421.96 147 458 C170.09471976 458.05833606 170.09471976 458.05833606 193.18945312 458.09765625 C202.61696567 458.10949099 212.04444229 458.12335023 221.47192383 458.15087891 C228.34005702 458.17092446 235.20816086 458.1837427 242.0763225 458.18817699 C245.70698112 458.19076563 249.33755583 458.19677282 252.96818733 458.21146011 C257.0388053 458.22779104 261.10928094 458.22797261 265.17993164 458.22705078 C266.36029999 458.23424133 267.54066833 458.24143188 268.75680542 458.24884033 C285.95340372 458.20704807 303.19312073 456.11337133 317 445 C328.33338142 433.49518928 331.83394399 419.80853234 332 404 C331.24418785 391.12320035 327.52615851 379.78376689 319 370 C318.54625 369.41863281 318.0925 368.83726562 317.625 368.23828125 C307.93434197 357.00822182 292.40404768 353.35201287 278.33046722 352.21048164 C272.84863597 351.8640363 267.3786725 351.86936383 261.88769531 351.88647461 C260.01238129 351.88625557 260.01238129 351.88625557 258.09918213 351.8860321 C254.71154637 351.88660438 251.32397356 351.89157713 247.93634892 351.89860606 C244.38096876 351.90490943 240.82558752 351.90544887 237.27020264 351.90663147 C230.55572695 351.90972438 223.84126779 351.91790993 217.12679935 351.92798096 C208.04070982 351.94130979 198.95461569 351.94665851 189.86851883 351.95248318 C175.57900021 351.96185146 161.28951643 351.9817839 147 352 Z"></path>
<path transform="translate(2753,370)" fill="#4338B3" d="M0 0 C44.88 0 89.76 0 136 0 C136.06621758 55.62785829 136.1215788 111.25567922 136.15319599 166.88356569 C136.15694781 173.46070727 136.16083081 180.03784877 136.16479492 186.61499023 C136.16558185 187.92430297 136.16636878 189.23361571 136.16717956 190.58260459 C136.1802102 211.74360266 136.20385107 232.90457612 136.23145839 254.06555962 C136.25957789 275.80146733 136.27619006 297.5373622 136.28226548 319.27328736 C136.28636838 332.67024935 136.29929618 346.06714175 136.3237494 359.46408231 C136.33968749 368.66845373 136.34438221 377.87278951 136.34050413 387.0771737 C136.33859507 392.37639073 136.34138481 397.67548671 136.35761642 402.97468185 C136.47830174 444.4207725 136.47830174 444.4207725 133 465 C132.88049968 465.71435837 132.76099936 466.42871673 132.63787782 467.16472232 C131.99448385 470.93184865 131.24161233 474.65294008 130.375 478.375 C130.12121582 479.4789209 129.86743164 480.5828418 129.60595703 481.72021484 C120.96260182 517.89539423 105.43496609 550.87702829 81 579 C80.5270752 579.54736816 80.05415039 580.09473633 79.56689453 580.65869141 C39.62090573 626.53205803 -18.2914699 649.79809048 -78 655 C-85.13983484 655.40566763 -92.27782755 655.4354349 -99.42724609 655.39111328 C-102.50012547 655.37499934 -105.57169043 655.39110669 -108.64453125 655.41015625 C-174.47545651 655.47979058 -235.06224843 631.03728278 -282.0625 585.125 C-318.41161397 548.26552405 -338.3537545 496.77994921 -344 446 C-344.14139404 444.85108276 -344.14139404 444.85108276 -344.28564453 443.67895508 C-350.9647028 382.6175467 -338.5139829 316.009372 -300.2890625 266.84375 C-299.53367187 265.9053125 -298.77828125 264.966875 -298 264 C-297.18273438 262.9790625 -296.36546875 261.958125 -295.5234375 260.90625 C-264.3597649 222.69413769 -220.92876361 197.67942921 -173 187 C-172.14035645 186.80245117 -171.28071289 186.60490234 -170.39501953 186.40136719 C-125.54958029 176.50410752 -76.44616144 182.3822918 -37.125 206.5 C-23.60622455 215.43853362 -11.94852367 226.25200804 -2 239 C-1.67 239.33 -1.34 239.66 -1 240 C-0.67 160.8 -0.34 81.6 0 0 Z M-170 333 C-170.80824219 333.66515625 -171.61648437 334.3303125 -172.44921875 335.015625 C-192.34147084 351.952979 -203.8841463 378.26307549 -206.18273926 404.05007935 C-206.46721681 408.78307106 -206.48071884 413.51017153 -206.4375 418.25 C-206.43445862 418.96445282 -206.43141724 419.67890564 -206.42828369 420.41500854 C-206.26327167 446.75569342 -199.46000811 472.61168864 -182 493 C-181.33355469 493.81082031 -180.66710938 494.62164063 -179.98046875 495.45703125 C-161.08454845 517.62143507 -134.63681266 525.98826921 -106.5078125 528.28515625 C-78.85658034 529.11110215 -51.69891062 519.53060901 -31.49951172 500.59326172 C-9.65873961 479.21610799 -0.53437616 449.53075424 0.01123047 419.59130859 C-0.12794045 387.4791328 -10.78927419 358.80722292 -33.25 335.68359375 C-50.08254502 319.87214062 -74.06155636 310.90546488 -97 310 C-98.36125 309.92265625 -98.36125 309.92265625 -99.75 309.84375 C-125.0549697 309.06910807 -150.70000391 316.24230395 -170 333 Z"></path>
<path transform="translate(1618.8515625,552.796875)" fill="#4338B3" d="M0 0 C1.01653656 -0.00570007 2.03307312 -0.01140015 3.08041382 -0.01727295 C5.22677592 -0.02666837 7.37315208 -0.03323504 9.51953125 -0.03710938 C12.71642207 -0.04670389 15.91263753 -0.07773392 19.109375 -0.109375 C83.01417777 -0.43763726 143.66757602 22.53557686 189.4609375 67.265625 C194.37719062 72.30998895 198.83329801 77.63962576 203.1484375 83.203125 C203.56706055 83.73470215 203.98568359 84.2662793 204.41699219 84.81396484 C235.01958454 123.8895507 252.42503535 176.1039441 252.26869202 225.70681763 C252.26997365 227.22033949 252.26997365 227.22033949 252.27128118 228.76443756 C252.27291809 232.11918131 252.2674441 235.47387419 252.26196289 238.82861328 C252.26168061 241.2438507 252.26183956 243.6590882 252.2624054 246.07432556 C252.26263254 251.26069753 252.25981046 256.44705815 252.25416756 261.63342667 C252.24601437 269.13189442 252.24343343 276.63035609 252.24217957 284.1288278 C252.23999503 296.29682616 252.23335121 308.46481779 252.22387695 320.6328125 C252.21468733 332.44759081 252.20762556 344.26236728 252.20336914 356.07714844 C252.20310114 356.8137567 252.20283315 357.55036497 252.20255703 358.3092947 C252.20024395 364.71748539 252.19809126 371.12567613 252.19595432 377.53386688 C252.18655743 405.09029259 252.16663323 432.64670044 252.1484375 460.203125 C210.5684375 460.203125 168.9884375 460.203125 126.1484375 460.203125 C125.8184375 438.093125 125.4884375 415.983125 125.1484375 393.203125 C122.1784375 398.483125 119.2084375 403.763125 116.1484375 409.203125 C110.61857119 417.03710227 104.7116783 424.22355923 98.1484375 431.203125 C97.6225 431.79351563 97.0965625 432.38390625 96.5546875 432.9921875 C73.73562989 457.55760156 36.27282414 471.11971914 3.4140625 472.34204102 C-56.51966372 473.91603689 -112.60258933 457.37876584 -157.48046875 416.3515625 C-159.58919617 414.44085396 -161.73936355 412.60012352 -163.9140625 410.765625 C-202.31896813 377.02745093 -221.94065175 323.71467236 -227.8515625 274.203125 C-227.94727539 273.44169189 -228.04298828 272.68025879 -228.14160156 271.89575195 C-229.20305579 262.18192396 -229.09537764 252.40022547 -229.1015625 242.640625 C-229.10223724 241.68392914 -229.10291199 240.72723328 -229.10360718 239.74154663 C-229.03059561 174.44123028 -207.82978805 114.93913956 -162.8515625 67.203125 C-162.12324219 66.42066406 -161.39492187 65.63820313 -160.64453125 64.83203125 C-154.28917145 58.21726901 -147.16767988 52.69952731 -139.8515625 47.203125 C-139.27744629 46.76822754 -138.70333008 46.33333008 -138.11181641 45.88525391 C-129.75303918 39.58931116 -121.08080199 34.17992236 -111.84423828 29.26464844 C-110.55463834 28.57766234 -109.26885088 27.88345035 -107.98779297 27.18066406 C-95.52640089 20.35569645 -82.30930455 15.67552044 -68.8515625 11.203125 C-68.06056152 10.93870605 -67.26956055 10.67428711 -66.45458984 10.40185547 C-45.44182159 3.54686261 -22.06336166 0.09923304 0 0 Z M-63.12109375 158.140625 C-84.44463974 183.55559629 -92.80185219 214.72887433 -90.2265625 247.578125 C-87.41675479 278.17044291 -74.94835194 303.32899195 -51.85546875 323.8203125 C-30.04246539 341.12321504 -2.04623307 346.29062799 25.1484375 344.203125 C45.81205049 341.81314235 65.55165199 334.19071835 81.1484375 320.203125 C82.04304688 319.40261719 82.93765625 318.60210938 83.859375 317.77734375 C106.16978683 296.68556786 115.21757823 267.28604394 116.1484375 237.203125 C116.39625683 210.55991046 109.03580194 184.1459916 92.1484375 163.203125 C91.47167969 162.36136719 90.79492188 161.51960938 90.09765625 160.65234375 C70.94453718 138.13779976 44.34315894 129.2604121 15.65625 126.91796875 C-13.31485228 126.05259816 -43.10117696 136.78604709 -63.12109375 158.140625 Z"></path>
<path transform="translate(3888.5625,552.6875)" fill="#4338B3" d="M0 0 C1.06298309 0.00182281 2.12596619 0.00364563 3.22116089 0.00552368 C18.4930973 0.0496643 33.40429048 0.37960592 48.4375 3.3125 C49.8615918 3.57788574 49.8615918 3.57788574 51.31445312 3.84863281 C85.35007675 10.3013591 118.27067627 22.90269794 146.4375 43.3125 C146.99872559 43.71823242 147.55995117 44.12396484 148.13818359 44.54199219 C156.41746203 50.58900644 164.03772665 57.22590604 171.4375 64.3125 C171.93636719 64.78413574 172.43523438 65.25577148 172.94921875 65.74169922 C180.94636421 73.33025016 187.87273202 81.46244188 194.4375 90.3125 C195.39076172 91.59060547 195.39076172 91.59060547 196.36328125 92.89453125 C216.85194889 121.29606364 229.20560136 154.03705747 235.4375 188.3125 C189.2375 188.3125 143.0375 188.3125 95.4375 188.3125 C91.4775 180.3925 91.4775 180.3925 87.4375 172.3125 C85.67086951 169.62848702 84.09272005 167.28917864 82.0625 164.875 C81.59755127 164.30628174 81.13260254 163.73756348 80.65356445 163.15161133 C63.26587856 142.34126879 38.64406945 131.73792256 12.125 128.5625 C10.56383894 128.45701614 9.00100302 128.37421722 7.4375 128.3125 C6.07625 128.23515625 6.07625 128.23515625 4.6875 128.15625 C-21.99820101 127.33934079 -48.90424703 135.46263893 -68.765625 153.6328125 C-88.64349521 172.67781106 -100.36745666 200.09955074 -100.99609375 227.64453125 C-101.03299037 230.47208271 -101.02485349 233.29737559 -101 236.125 C-100.99695862 236.8647406 -100.99391724 237.6044812 -100.99078369 238.36663818 C-100.91999819 250.044987 -100.14215353 261.13250879 -96.5625 272.3125 C-96.34287598 273.00923828 -96.12325195 273.70597656 -95.89697266 274.42382812 C-87.49792156 300.26889121 -72.07515785 320.64566013 -47.71484375 333.27001953 C-34.63976217 339.8176284 -20.21586415 343.73407773 -5.5625 344.3125 C-4.655 344.3640625 -3.7475 344.415625 -2.8125 344.46875 C25.21079095 345.32660585 52.6254179 336.18401434 73.4375 317.3125 C83.31244358 307.90563479 89.92730286 296.71044356 95.4375 284.3125 C141.6375 284.3125 187.8375 284.3125 235.4375 284.3125 C230.7762241 307.61887949 230.7762241 307.61887949 228.1875 315.375 C227.74035645 316.73902954 227.74035645 316.73902954 227.28417969 318.13061523 C218.04561269 345.70481169 204.50807304 371.2815131 185.4375 393.3125 C184.74398437 394.116875 184.05046875 394.92125 183.3359375 395.75 C181.07754446 398.31224955 178.7723964 400.81974111 176.4375 403.3125 C175.97923828 403.80476074 175.52097656 404.29702148 175.04882812 404.80419922 C166.3207247 414.10316465 156.78078961 421.87490317 146.4375 429.3125 C145.82712891 429.7569043 145.21675781 430.20130859 144.58789062 430.65917969 C107.41750872 457.49528782 59.55160979 472.29756008 13.8046875 472.515625 C12.81791519 472.52263931 11.83114288 472.52965363 10.81446838 472.53688049 C7.6470987 472.55429397 4.4799158 472.56073272 1.3125 472.5625 C0.232034 472.56317474 -0.84843201 472.56384949 -1.9616394 472.56454468 C-17.38771867 472.54920704 -32.37143191 472.22745596 -47.5625 469.3125 C-48.89885498 469.07901855 -48.89885498 469.07901855 -50.26220703 468.84082031 C-104.5677945 459.25916885 -156.25312507 430.89308295 -190.5625 387.3125 C-191.34238281 386.36117188 -192.12226563 385.40984375 -192.92578125 384.4296875 C-216.58440294 354.92244322 -231.17431326 318.38188791 -237.5625 281.3125 C-237.72476074 280.3951709 -237.88702148 279.4778418 -238.05419922 278.53271484 C-242.817446 250.32190651 -242.5417174 219.46213718 -237.5625 191.3125 C-237.40152832 190.37841309 -237.24055664 189.44432617 -237.07470703 188.48193359 C-230.39761034 151.1068688 -214.85271359 114.65536368 -190.5625 85.3125 C-190.0866748 84.73516113 -189.61084961 84.15782227 -189.12060547 83.56298828 C-179.53392925 71.99716757 -169.40089424 61.61409547 -157.5625 52.3125 C-156.56476562 51.50941406 -155.56703125 50.70632813 -154.5390625 49.87890625 C-121.87864478 23.84952758 -81.73597613 8.18577032 -40.5625 2.3125 C-39.37003662 2.13517334 -38.17757324 1.95784668 -36.94897461 1.77514648 C-24.64728101 0.06402073 -12.40322066 -0.04404938 0 0 Z"></path>
<path transform="translate(3152.25390625,552.796875)" fill="#4338B3" d="M0 0 C1.58783546 -0.00855011 1.58783546 -0.00855011 3.20774841 -0.01727295 C5.44407165 -0.02667233 7.68040841 -0.03323665 9.91674805 -0.03710938 C13.24749869 -0.0466991 16.57759984 -0.07772326 19.90820312 -0.109375 C43.03478345 -0.22395951 65.31312528 2.62383003 87.74609375 8.203125 C88.86540283 8.47697021 88.86540283 8.47697021 90.00732422 8.75634766 C120.38812567 16.37088317 149.84411216 31.77058205 172.27050781 53.75830078 C173.83988212 55.29495815 175.42935287 56.80911917 177.01953125 58.32421875 C200.90576138 81.34021316 216.58049307 111.5317694 225.74609375 143.203125 C226.09728271 144.40171143 226.09728271 144.40171143 226.45556641 145.62451172 C232.62289999 167.11566917 235.93309827 189.99932087 235.86634827 212.35856628 C235.8676299 213.95912439 235.8676299 213.95912439 235.86893743 215.59201699 C235.8705734 219.13712718 235.86510192 222.68218915 235.85961914 226.22729492 C235.85933684 228.78060912 235.85949585 231.3339234 235.86006165 233.88723755 C235.86028874 239.36879773 235.85746799 244.85034261 235.85182381 250.33189964 C235.84366879 258.25713861 235.8410895 266.18237184 235.83983582 274.10761455 C235.83765157 286.96831207 235.83100852 299.82900321 235.8215332 312.68969727 C235.81234284 325.17667612 235.80528144 337.66365322 235.80102539 350.15063477 C235.80075739 350.92922008 235.8004894 351.70780539 235.80021328 352.5099842 C235.79813364 358.599764 235.79617679 364.68954384 235.79425871 370.7793237 C235.78483881 400.58726331 235.76471724 430.39518697 235.74609375 460.203125 C190.86609375 460.203125 145.98609375 460.203125 99.74609375 460.203125 C99.69710937 443.52910156 99.648125 426.85507812 99.59765625 409.67578125 C99.56224947 399.08007309 99.52635626 388.48437023 99.48828125 377.88867188 C99.46827841 372.31697643 99.44839481 366.74528057 99.42871094 361.17358398 C99.4262395 360.47542798 99.42376806 359.77727198 99.42122173 359.05795974 C99.38168828 347.84121058 99.34886464 336.62445157 99.31859393 325.40767402 C99.28729007 313.86444707 99.24846135 302.32126293 99.20330369 290.77808183 C99.17822344 284.30786289 99.15638937 277.8376723 99.14274979 271.36741829 C99.12975955 265.25661328 99.10752944 259.14590645 99.07871056 253.03515625 C99.06976536 250.81227631 99.06397585 248.58938063 99.06188011 246.36648369 C99.04902781 234.78763278 98.7378446 223.29474835 97.83554077 211.74778748 C97.75619974 210.72590428 97.6768587 209.70402109 97.5951134 208.65117174 C95.62356374 185.5844914 87.69522922 162.58038365 70.44921875 146.4453125 C51.56713647 130.78300725 27.93659028 126.89232837 4.015625 128.4453125 C-17.13167446 130.49115193 -36.47383415 138.5181945 -50.25390625 155.203125 C-63.1731435 172.96128803 -68.628858 194.48479889 -69.80357361 216.17037964 C-69.8455833 216.94494723 -69.887593 217.71951483 -69.93087572 218.51755416 C-70.44445291 228.91524969 -70.43142616 239.31909324 -70.45922852 249.72705078 C-70.46883098 252.0350969 -70.47884235 254.34314135 -70.48922729 256.65118408 C-70.51602622 262.86065311 -70.53716956 269.07012954 -70.55722928 275.27962351 C-70.57924501 281.78985312 -70.60655672 288.30006056 -70.63328552 294.81027222 C-70.67736948 305.71904544 -70.71823896 316.62782627 -70.7565918 327.53662109 C-70.79607081 338.76319264 -70.83753646 349.98975403 -70.8815918 361.21630859 C-70.8843413 361.91758035 -70.88709081 362.6188521 -70.88992363 363.34137452 C-70.91386456 369.4432556 -70.93795403 375.54513609 -70.96205807 381.64701653 C-71.06530522 407.83236625 -71.15881175 434.01774146 -71.25390625 460.203125 C-116.13390625 460.203125 -161.01390625 460.203125 -207.25390625 460.203125 C-207.3749003 396.25553043 -207.3749003 396.25553043 -207.40039062 369.40625 C-207.40626283 363.26236955 -207.41232388 357.11848933 -207.41870117 350.97460938 C-207.41988804 349.81980934 -207.41988804 349.81980934 -207.42109889 348.64168 C-207.43409039 336.26826315 -207.45771014 323.89488881 -207.48536464 311.52149703 C-207.51357736 298.79065442 -207.53011573 286.05983383 -207.53617173 273.32896125 C-207.54025558 265.49499975 -207.55307701 257.6611584 -207.57765565 249.82723396 C-207.59562754 243.78543209 -207.59723247 237.7437301 -207.59322929 231.70189857 C-207.59404431 229.24882462 -207.59987088 226.79574547 -207.61152267 224.34269905 C-207.8942263 161.66945536 -190.50220995 100.93672316 -145.87890625 55.515625 C-108.41952613 18.27789801 -52.04844907 0.22444878 0 0 Z"></path>
<path transform="translate(2134.25390625,552.796875)" fill="#4338B3" d="M0 0 C1.58783546 -0.00855011 1.58783546 -0.00855011 3.20774841 -0.01727295 C5.44407165 -0.02667233 7.68040841 -0.03323665 9.91674805 -0.03710938 C13.24749869 -0.0466991 16.57759984 -0.07772326 19.90820312 -0.109375 C43.03478345 -0.22395951 65.31312528 2.62383003 87.74609375 8.203125 C88.86540283 8.47697021 88.86540283 8.47697021 90.00732422 8.75634766 C120.38812567 16.37088317 149.84411216 31.77058205 172.27050781 53.75830078 C173.83988212 55.29495815 175.42935287 56.80911917 177.01953125 58.32421875 C200.90576138 81.34021316 216.58049307 111.5317694 225.74609375 143.203125 C226.09728271 144.40171143 226.09728271 144.40171143 226.45556641 145.62451172 C232.62289999 167.11566917 235.93309827 189.99932087 235.86634827 212.35856628 C235.8676299 213.95912439 235.8676299 213.95912439 235.86893743 215.59201699 C235.8705734 219.13712718 235.86510192 222.68218915 235.85961914 226.22729492 C235.85933684 228.78060912 235.85949585 231.3339234 235.86006165 233.88723755 C235.86028874 239.36879773 235.85746799 244.85034261 235.85182381 250.33189964 C235.84366879 258.25713861 235.8410895 266.18237184 235.83983582 274.10761455 C235.83765157 286.96831207 235.83100852 299.82900321 235.8215332 312.68969727 C235.81234284 325.17667612 235.80528144 337.66365322 235.80102539 350.15063477 C235.80075739 350.92922008 235.8004894 351.70780539 235.80021328 352.5099842 C235.79813364 358.599764 235.79617679 364.68954384 235.79425871 370.7793237 C235.78483881 400.58726331 235.76471724 430.39518697 235.74609375 460.203125 C190.86609375 460.203125 145.98609375 460.203125 99.74609375 460.203125 C99.69710937 443.52910156 99.648125 426.85507812 99.59765625 409.67578125 C99.56224947 399.08007309 99.52635626 388.48437023 99.48828125 377.88867188 C99.46827841 372.31697643 99.44839481 366.74528057 99.42871094 361.17358398 C99.4262395 360.47542798 99.42376806 359.77727198 99.42122173 359.05795974 C99.38168828 347.84121058 99.34886464 336.62445157 99.31859393 325.40767402 C99.28729007 313.86444707 99.24846135 302.32126293 99.20330369 290.77808183 C99.17822344 284.30786289 99.15638937 277.8376723 99.14274979 271.36741829 C99.12975955 265.25661328 99.10752944 259.14590645 99.07871056 253.03515625 C99.06976536 250.81227631 99.06397585 248.58938063 99.06188011 246.36648369 C99.04902781 234.78763278 98.7378446 223.29474835 97.83554077 211.74778748 C97.75619974 210.72590428 97.6768587 209.70402109 97.5951134 208.65117174 C95.62356374 185.5844914 87.69522922 162.58038365 70.44921875 146.4453125 C51.56713647 130.78300725 27.93659028 126.89232837 4.015625 128.4453125 C-17.13167446 130.49115193 -36.47383415 138.5181945 -50.25390625 155.203125 C-63.1731435 172.96128803 -68.628858 194.48479889 -69.80357361 216.17037964 C-69.8455833 216.94494723 -69.887593 217.71951483 -69.93087572 218.51755416 C-70.44445291 228.91524969 -70.43142616 239.31909324 -70.45922852 249.72705078 C-70.46883098 252.0350969 -70.47884235 254.34314135 -70.48922729 256.65118408 C-70.51602622 262.86065311 -70.53716956 269.07012954 -70.55722928 275.27962351 C-70.57924501 281.78985312 -70.60655672 288.30006056 -70.63328552 294.81027222 C-70.67736948 305.71904544 -70.71823896 316.62782627 -70.7565918 327.53662109 C-70.79607081 338.76319264 -70.83753646 349.98975403 -70.8815918 361.21630859 C-70.8843413 361.91758035 -70.88709081 362.6188521 -70.88992363 363.34137452 C-70.91386456 369.4432556 -70.93795403 375.54513609 -70.96205807 381.64701653 C-71.06530522 407.83236625 -71.15881175 434.01774146 -71.25390625 460.203125 C-116.13390625 460.203125 -161.01390625 460.203125 -207.25390625 460.203125 C-207.3749003 396.25553043 -207.3749003 396.25553043 -207.40039062 369.40625 C-207.40626283 363.26236955 -207.41232388 357.11848933 -207.41870117 350.97460938 C-207.41988804 349.81980934 -207.41988804 349.81980934 -207.42109889 348.64168 C-207.43409039 336.26826315 -207.45771014 323.89488881 -207.48536464 311.52149703 C-207.51357736 298.79065442 -207.53011573 286.05983383 -207.53617173 273.32896125 C-207.54025558 265.49499975 -207.55307701 257.6611584 -207.57765565 249.82723396 C-207.59562754 243.78543209 -207.59723247 237.7437301 -207.59322929 231.70189857 C-207.59404431 229.24882462 -207.59987088 226.79574547 -207.61152267 224.34269905 C-207.8942263 161.66945536 -190.50220995 100.93672316 -145.87890625 55.515625 C-108.41952613 18.27789801 -52.04844907 0.22444878 0 0 Z"></path>
<path transform="translate(1169.81640625,552.796875)" fill="#4338B3" d="M0 0 C1.00614349 -0.00705963 2.01228699 -0.01411926 3.04891968 -0.02139282 C45.39430216 -0.25107625 45.39430216 -0.25107625 63.18359375 3.203125 C64.22837891 3.40180176 65.27316406 3.60047852 66.34960938 3.80517578 C102.55349312 10.91703346 135.50637313 25.49013819 161.76953125 51.79296875 C163.15118184 53.17238366 164.55114197 54.53510404 166 55.84375 C195.25485658 82.80795786 208.20855571 127.27183748 213.49609375 165.265625 C213.6677002 166.42731201 213.83930664 167.58899902 214.01611328 168.78588867 C215.7709742 182.42677578 215.18359375 195.12148461 215.18359375 209.203125 C170.30359375 209.203125 125.42359375 209.203125 79.18359375 209.203125 C78.19359375 199.633125 77.20359375 190.063125 76.18359375 180.203125 C72.91525807 163.86144659 67.24440888 148.8008188 53.55859375 138.390625 C35.99366746 127.00296636 13.18195702 125.99642083 -6.81640625 130.203125 C-22.07560003 134.28215191 -32.45769114 141.76163565 -40.81640625 155.203125 C-44.65152912 162.06907387 -46.46662681 169.31612603 -48.06640625 176.953125 C-48.22987549 177.72591797 -48.39334473 178.49871094 -48.56176758 179.29492188 C-51.65222706 195.44772342 -50.9821568 212.24446649 -51.02172852 228.61132812 C-51.03132484 231.14567722 -51.0413359 233.68002477 -51.05172729 236.21437073 C-51.07304961 241.63962782 -51.09152943 247.06488232 -51.10733223 252.49015808 C-51.1301846 260.33389406 -51.15830476 268.17760445 -51.18765151 276.0213185 C-51.23514088 288.75166839 -51.27845469 301.48202886 -51.3190918 314.21240234 C-51.35854228 326.56820496 -51.40000165 338.92399819 -51.4440918 351.27978516 C-51.4468413 352.05099548 -51.44959081 352.82220579 -51.45242363 353.61678612 C-51.47394671 359.64944808 -51.49558513 365.68210962 -51.51725996 371.71477103 C-51.62320742 401.21086999 -51.71910711 430.7069938 -51.81640625 460.203125 C-96.69640625 460.203125 -141.57640625 460.203125 -187.81640625 460.203125 C-187.9374003 390.69428551 -187.9374003 390.69428551 -187.96289062 361.53710938 C-187.96876305 354.86482725 -187.97482416 348.19254534 -187.98120117 341.52026367 C-187.98199242 340.68415666 -187.98278366 339.84804965 -187.98359889 338.98660606 C-187.9965991 325.53925844 -188.02022384 312.09194984 -188.04786464 298.64462525 C-188.07605278 284.8142852 -188.09261064 270.98396537 -188.09867173 257.15359777 C-188.10276058 248.63942302 -188.11561016 240.12535854 -188.14015565 231.61121779 C-188.15617899 225.74978268 -188.16076971 219.88840345 -188.15691038 214.0269481 C-188.15501419 210.65976552 -188.15934974 207.29292547 -188.17402267 203.92575264 C-188.41107337 146.65598749 -174.25435932 91.35060076 -133.29248047 49.65185547 C-129.39492155 45.82649744 -125.16959662 42.4887755 -120.81640625 39.203125 C-119.82898437 38.42710937 -118.8415625 37.65109375 -117.82421875 36.8515625 C-84.9548169 11.66428139 -40.98665221 0.19171296 0 0 Z"></path>
<path transform="translate(3459,565)" fill="#4338B3" d="M0 0 C44.88 0 89.76 0 136 0 C136 147.84 136 295.68 136 448 C91.12 448 46.24 448 0 448 C0 300.16 0 152.32 0 0 Z"></path>
<path transform="translate(339,121)" fill="#FF458C" d="M0 0 C0.99 0 1.98 0 3 0 C4.53312768 7.29768774 5.99014622 14.53789882 6.9375 21.9375 C7.83262537 28.57195864 9.37051083 34.92699386 11.06640625 41.390625 C11.77064065 44.11327178 12.39353433 46.80640729 12.9375 49.5625 C15.60223628 61.58797654 20.35819658 72.32510077 26.04638672 83.16455078 C27.41273885 85.79441134 28.7016367 88.46105569 30 91.125 C39.55085012 110.17493412 51.66126448 126.04489843 65.953125 141.73046875 C67.84559243 143.82879618 69.67441133 145.96862806 71.5 148.125 C77.43384598 154.92419852 85.28122193 163.09374064 94 166 C94.66 166.680625 95.32 167.36125 96 168.0625 C113.68026785 186.20940248 143.16031278 198.13006863 167 205 C168.05429199 205.31227539 168.05429199 205.31227539 169.12988281 205.63085938 C183.1148059 209.76511059 196.9138576 213.15277415 211.54321289 213.70996094 C216.82346005 213.91173002 216.82346005 213.91173002 219 215 C219 215.99 219 216.98 219 218 C211.28885282 219.51993703 203.62532474 220.97418651 195.8125 221.875 C180.14522583 223.86449513 161.90312663 227.28334477 147.9765625 234.97265625 C145.66785343 236.17263745 143.28634068 237.16245373 140.89160156 238.17651367 C120.71635286 246.95956915 102.32660022 258.19270801 85.69091797 272.55615234 C84.00943174 273.99194639 82.30821551 275.39980324 80.59765625 276.80078125 C71.47937194 284.29736171 63.78807396 292.30275149 57 302 C55.67482138 303.34143848 54.34083081 304.67420654 53 306 C45.63240602 314.15583001 40.38777241 323.49409546 35 333 C34.3179155 334.18631705 33.63563283 335.3725202 32.953125 336.55859375 C26.64534865 347.67289567 20.49821698 358.65797606 17 371 C16.63261719 372.09054687 16.26523437 373.18109375 15.88671875 374.3046875 C10.34249307 390.81094896 7.43339313 408.05563787 4.89990234 425.2512207 C4.4519598 428.28383931 3.97195514 431.08413457 3 434 C2.01 434 1.02 434 0 434 C-1.49407198 431.01185605 -1.55436571 427.82649461 -1.90234375 424.54296875 C-2.07208955 423.02276679 -2.24201719 421.50258512 -2.41210938 419.98242188 C-2.67576583 417.58645914 -2.93719938 415.19029392 -3.19506836 412.79370117 C-3.44548965 410.4802286 -3.70466141 408.16786102 -3.96484375 405.85546875 C-4.03887924 405.14384079 -4.11291473 404.43221283 -4.18919373 403.69902039 C-4.63075329 399.81977196 -5.39734532 396.55688543 -7 393 C-7.54955415 390.7369055 -7.99380497 388.46941546 -8.4375 386.18359375 C-8.9082107 384.00808655 -8.9082107 384.00808655 -9.9375 382.22265625 C-11.17119529 379.64187456 -11.71053813 377.03323151 -12.37011719 374.26171875 C-13.55223049 370.01710727 -15.36213399 366.03020583 -17.125 362 C-17.52388428 361.08081787 -17.92276855 360.16163574 -18.33374023 359.21459961 C-21.93799261 350.99170733 -25.7924455 342.93051334 -30 335 C-30.31791504 334.39607422 -30.63583008 333.79214844 -30.96337891 333.16992188 C-35.81079423 324.05058347 -41.53869204 316.01202188 -48 308 C-48.69222656 307.11441406 -49.38445312 306.22882813 -50.09765625 305.31640625 C-59.08199934 293.8671738 -68.92973475 283.43445286 -80 274 C-80.87398437 273.236875 -81.74796875 272.47375 -82.6484375 271.6875 C-102.83004477 254.37352057 -127.54160816 240.62477323 -152.5 231.5625 C-153.5621875 231.17191406 -154.624375 230.78132812 -155.71875 230.37890625 C-167.43071762 226.45793014 -179.1865346 224.12649775 -191.375 222.375 C-207.95726907 219.94380858 -207.95726907 219.94380858 -216 218 C-216 217.01 -216 216.02 -216 215 C-215.08863281 214.90203125 -214.17726563 214.8040625 -213.23828125 214.703125 C-188.14023939 211.80623659 -161.75298032 207.11389641 -139.234375 195.13671875 C-136.96640768 193.9829102 -134.69470001 193.07887876 -132.3125 192.1875 C-125.82691444 189.66476042 -119.78574661 186.31774331 -113.70996094 182.94775391 C-112.28343542 182.15709542 -110.84961099 181.37962405 -109.4140625 180.60546875 C-64.08858699 155.00353634 -30.6056636 109.18392142 -13 61 C-12.566875 59.845 -12.13375 58.69 -11.6875 57.5 C-5.42670598 40.50641623 -2.43754655 23.00961358 -1.2109375 4.9609375 C-1 3 -1 3 0 0 Z"></path>
<path transform="translate(3583.529052734375,369.08544921875)" fill="#4338B3" d="M0 0 C16.09519565 13.50742065 28.44937512 33.67098361 30.47094727 54.91455078 C32.07059414 81.64727375 28.77470347 105.91452578 11.09204102 126.98486328 C-3.33712021 143.11283783 -23.68422862 154.78690419 -45.61352539 156.09912109 C-73.09737677 157.18519226 -96.5771974 152.65947736 -117.52905273 133.91455078 C-133.32773013 118.99357769 -142.99185973 98.09484404 -143.84936523 76.39501953 C-144.50731315 48.49385668 -138.39242148 25.7698824 -118.93920898 5.17236328 C-87.57556457 -25.13200974 -33.94730305 -27.15159351 0 0 Z"></path>
</svg>
